<svg width="209" height="44" xmlns="http://www.w3.org/2000/svg"><title>Glen Raven logo</title><g fill="none" fill-rule="evenodd"><path d="M172.506 41.319c-1.5.031-5.234-.119-5.936-.18v-8.5h7.436a1.5 1.5 0 0 1 1.116.843V30.16a1.5 1.5 0 0 1-1.116.843h-7.436v-6.884s7.117.059 7.725.059a3.159 3.159 0 0 1 2.68 1.055l-.064-2.72h-14.234c.55.22.907.76.893 1.353v17.765a1.4 1.4 0 0 1-.957 1.356h15.063l.671-3.563c-1.179 1.9-2.4 1.9-5.841 1.9M197.637 23.868l.06 13.161s-10.687-11.811-11.551-12.762a4.08 4.08 0 0 1-1.121-1.754h-4.6a4.054 4.054 0 0 1 1.468 1.083c.348.565.484 1.236.383 1.892l-.1 16.143a1.488 1.488 0 0 1-.834 1.356h3.695a1.4 1.4 0 0 1-.893-1.356l-.053-15.119c0 .3 15.426 17.047 15.426 17.047l.206-19.693a1.4 1.4 0 0 1 .862-1.355h-3.775c.526.241.854.777.829 1.355" fill="#FFF"/><path d="M106.823 32.148c-.829 0-2.613-.062-2.613-.062v-8.279s1.717-.09 3.154-.09a3.9 3.9 0 0 1 4.279 3.913c0 3.162-2.4 4.518-4.82 4.518m6.446 3.372a7.406 7.406 0 0 0-4.089-2.811l-.011-.028c2.374-.181 5.694-1.934 5.694-5.139 0-2-1.37-5.029-7.755-5.029h-6.759c.534.237.873.771.86 1.355v17.764a1.517 1.517 0 0 1-.86 1.355h4.753a1.545 1.545 0 0 1-.891-1.356v-8.278h2.3c1.658 0 2.737 1.31 3.591 2.5 1.232 1.722 2.405 3.534 4.016 5.8a3.149 3.149 0 0 0 2.859 1.392l2.956-.058a8.4 8.4 0 0 1-1.761-1.179c-1.752-2-3.388-4.1-4.9-6.288" fill="#FFF" fill-rule="nonzero"/><path d="M156.488 24.063c-.045.112-6.01 14.2-6.01 14.2s-6.004-13.961-6.014-13.976a1.3 1.3 0 0 1 .608-1.776h-5.9a2.66 2.66 0 0 1 1.661 1.444c.555 1.108 8.884 19.812 8.884 19.812s8.551-18.637 9.059-19.812a2.574 2.574 0 0 1 1.24-1.444h-4.022c.766.3.776.9.5 1.55" fill="#FFF"/><path d="m127.307 35.42 3.674-8.634 3.864 8.636-7.538-.002Zm13.324 5.579-9-19.336s-8.6 18.713-9.155 19.851a3.277 3.277 0 0 1-1.468 1.472h4.5a1.012 1.012 0 0 1-.671-1.475l1.852-4.639h8.76c1 2.1 1.911 4.276 2.1 4.639.256.693.034 1.114-.8 1.475h5.924a3.735 3.735 0 0 1-2.038-1.99l-.004.003Z" fill="#FFF" fill-rule="nonzero"/><path d="M34.644 41.299c-1.468 0-4.31-.034-4.978-.124V23.868a1.4 1.4 0 0 1 .862-1.355h-4.836c.562.21.925.756.9 1.355v17.764a1.443 1.443 0 0 1-.9 1.356h14.313l.637-3.585c-1.083 1.835-2.17 1.835-6 1.9" fill="#FFF"/><path d="M207.686 25.889c-.172.314-.43.573-.745.745-.62.353-1.38.353-2 0a1.913 1.913 0 0 1-.749-.745 2.025 2.025 0 0 1 .006-2.009 1.89 1.89 0 0 1 .752-.745c.304-.168.645-.257.992-.259.345.002.685.09.986.259.319.17.581.429.756.745a2.015 2.015 0 0 1 0 2.009m.341-2.21a2.193 2.193 0 0 0-.9-.891 2.421 2.421 0 0 0-2.376 0c-.38.205-.692.514-.9.891a2.411 2.411 0 0 0 0 2.408c.205.379.514.69.891.9.745.42 1.655.42 2.4 0 .377-.21.686-.521.891-.9a2.431 2.431 0 0 0-.006-2.408" fill="#FFF" fill-rule="nonzero"/><path d="M205.811 24.762h-.51v-.779h.479c.14-.008.281.006.417.043a.385.385 0 0 1 .18.136.348.348 0 0 1 .064.2.344.344 0 0 1-.133.287.812.812 0 0 1-.5.108m.552.437a.741.741 0 0 0-.222-.136.807.807 0 0 0 .541-.237.7.7 0 0 0 .2-.494.665.665 0 0 0-.124-.38.639.639 0 0 0-.325-.251 2.131 2.131 0 0 0-.662-.071h-.879v2.591h.417v-1.1h.246a.519.519 0 0 1 .333.087c.183.171.333.375.443.6l.228.409h.51l-.316-.508a2.872 2.872 0 0 0-.383-.513" fill="#FFF" fill-rule="nonzero"/><path d="M53.469 41.319c-1.5.031-5.234-.119-5.938-.18v-8.5h7.438a1.5 1.5 0 0 1 1.117.843V30.16a1.5 1.5 0 0 1-1.117.843h-7.438v-6.884s7.119.059 7.726.059a3.161 3.161 0 0 1 2.68 1.055l-.064-2.72H43.64c.55.22.907.76.893 1.353v17.765a1.4 1.4 0 0 1-.957 1.356h15.063l.671-3.563c-1.179 1.9-2.4 1.9-5.841 1.9M78.6 23.868l.06 13.161S67.978 25.218 67.109 24.267a4.08 4.08 0 0 1-1.121-1.754h-4.6a4.04 4.04 0 0 1 1.468 1.083c.348.565.484 1.236.383 1.892l-.1 16.143a1.488 1.488 0 0 1-.834 1.356H66a1.4 1.4 0 0 1-.893-1.356l-.053-15.119c0 .3 15.426 17.047 15.426 17.047l.206-19.693a1.4 1.4 0 0 1 .862-1.355h-3.777c.526.241.854.777.829 1.355M17.213 33.375a2.2 2.2 0 0 1 .38 1.462v5.2a9.473 9.473 0 0 1-5.144 1.413c-6.667 0-9.095-4.7-9.095-9.039 0-4.877 3.259-8.565 9.008-8.565 1.5 0 5.722.956 7.4 4.62-.025-.054-.225-4.518-.225-4.518a18.47 18.47 0 0 0-7.247-1.716C4.116 22.241 0 27.691 0 32.809c0 6.294 5.617 10.449 11.9 10.449 3.19-.07 6.322-.864 9.161-2.319a2.707 2.707 0 0 1-.446-1.3V33.65a1.468 1.468 0 0 1 .862-1.358h-5.732c.574.229 1.08.602 1.468 1.083" fill="#FFF"/><path d="M98.115 8.743C80.06 19.196 87.361 35.568 87.361 35.568s-.172-10.7 15.082-20.562c15.6-10.083 23.992-7.5 23.992-7.5s-11.059-8.758-28.32 1.237" fill="#6AA342"/><path d="M86.799 3.989C72.894 10.8 63.35 6.872 63.35 6.872s7.473 7.883 16.58 6.818C91.294 12.363 94.944 3.4 111.856 2.619c-.865-.68-9.406-6.294-25.057 1.37" fill="#6AA342"/></g></svg>
